<?xml version="1.0" encoding="utf-8"?>
<!-- Generator: Adobe Illustrator 24.1.0, SVG Export Plug-In . SVG Version: 6.00 Build 0)  -->
<svg version="1.1" id="Layer_1" xmlns="http://www.w3.org/2000/svg" xmlns:xlink="http://www.w3.org/1999/xlink" x="0px" y="0px"
	 viewBox="0 0 957.11 782.47" style="enable-background:new 0 0 957.11 782.47;" xml:space="preserve">
<style type="text/css">
	.st0{fill:url(#SVGID_1_);stroke:#2F2F2F;stroke-width:4;stroke-miterlimit:10;}
	.st1{fill:url(#SVGID_2_);stroke:#2F2F2F;stroke-width:4;stroke-miterlimit:10;}
	.st2{fill:url(#SVGID_3_);stroke:#2F2F2F;stroke-width:4;stroke-miterlimit:10;}
	.st3{fill:url(#SVGID_4_);stroke:#2F2F2F;stroke-width:4;stroke-miterlimit:10;}
	.st4{fill:url(#SVGID_5_);stroke:#2F2F2F;stroke-width:4;stroke-miterlimit:10;}
</style>
<g>
	<linearGradient id="SVGID_1_" gradientUnits="userSpaceOnUse" x1="479.5411" y1="112.8348" x2="487.51" y2="694.5667">
		<stop  offset="0" style="stop-color:#8FFF73;stop-opacity:0.05"/>
		<stop  offset="1" style="stop-color:#FFD058;stop-opacity:0.5"/>
	</linearGradient>
	<path class="st0" d="M300.39,540.76c2.55,8.77,10.2,14.77,18.88,14.79l402.82,1.06c8.81,0.02,16.57-6.1,19.05-15.04l76-273.77
		c4.51-16.26,1.91-33.8-7.09-47.82l-0.26-0.41c-3.75-5.84-10.03-9.29-16.7-9.17l-504.86,8.68c-8.79,0.15-16.62-5.84-19.23-14.71
		l-16.21-55.14c-2.5-8.51-9.83-14.41-18.25-14.71l-71.88-2.51c-7.45-0.26-14.41,3.93-18,10.83l0,0c-3.67,7.05-3.19,15.7,1.24,22.25
		l3.91,5.78c3.2,4.74,8.13,7.85,13.59,8.59l20.81,2.82C192.29,201.67,300.39,540.76,300.39,540.76z"/>
	<linearGradient id="SVGID_2_" gradientUnits="userSpaceOnUse" x1="343.473" y1="112.4804" x2="351.45" y2="694.796">
		<stop  offset="0" style="stop-color:#8FFF73;stop-opacity:0.05"/>
		<stop  offset="1" style="stop-color:#FFD058;stop-opacity:0.5"/>
	</linearGradient>
	<ellipse class="st1" cx="350.55" cy="629.33" rx="73.57" ry="73.5"/>
	<linearGradient id="SVGID_3_" gradientUnits="userSpaceOnUse" x1="673.7722" y1="109.7588" x2="681.7491" y2="692.0744">
		<stop  offset="0" style="stop-color:#8FFF73;stop-opacity:0.05"/>
		<stop  offset="1" style="stop-color:#FFD058;stop-opacity:0.5"/>
	</linearGradient>
	<ellipse class="st2" cx="680.9" cy="630.15" rx="73.57" ry="73.5"/>
	<linearGradient id="SVGID_4_" gradientUnits="userSpaceOnUse" x1="340.7249" y1="114.582" x2="348.7018" y2="696.8972">
		<stop  offset="0" style="stop-color:#8FFF73;stop-opacity:0.05"/>
		<stop  offset="1" style="stop-color:#FFD058;stop-opacity:0.5"/>
	</linearGradient>
	<ellipse class="st3" cx="347.8" cy="630.72" rx="12.94" ry="12.54"/>
	<linearGradient id="SVGID_5_" gradientUnits="userSpaceOnUse" x1="673.7565" y1="109.7594" x2="681.7335" y2="692.0746">
		<stop  offset="0" style="stop-color:#8FFF73;stop-opacity:0.05"/>
		<stop  offset="1" style="stop-color:#FFD058;stop-opacity:0.5"/>
	</linearGradient>
	<ellipse class="st4" cx="680.9" cy="631.29" rx="12.94" ry="12.54"/>
</g>
</svg>
