<?xml version="1.0" encoding="utf-8"?>
<!-- Generator: Adobe Illustrator 24.1.0, SVG Export Plug-In . SVG Version: 6.00 Build 0)  -->
<svg version="1.1" id="Layer_1" xmlns="http://www.w3.org/2000/svg" xmlns:xlink="http://www.w3.org/1999/xlink" x="0px" y="0px"
	 viewBox="0 0 50 50" style="enable-background:new 0 0 50 50;" xml:space="preserve">
<style type="text/css">
	.st0{fill:none;stroke:#000000;stroke-width:2;stroke-miterlimit:10;}
	.st1{stroke:#000000;stroke-width:0.75;stroke-miterlimit:10;}
</style>
<path class="st0" d="M11.8,27l1.1-1.2c1.3-1.4,2.9-2.7,4.6-3.6c0.3-0.1,0.6-0.3,0.9-0.4c3.1-1.2,6.1-1.4,9.3-0.5
	c0.7,0.2,1.3,0.4,1.9,0.7c1.5,0.7,2.8,1.6,4.1,2.6l2,1.7l-0.7,0.8c-1.2,1.4-2.7,2.7-4.4,3.6c-0.3,0.2-0.6,0.3-0.8,0.4
	c-3.5,1.6-7,1.8-10.6,0.6c-0.6-0.2-1.2-0.4-1.8-0.7c-1.4-0.7-2.7-1.6-3.9-2.6L11.8,27z"/>
<ellipse class="st1" cx="23.9" cy="26.7" rx="3.7" ry="4"/>
</svg>
