<?xml version="1.0" encoding="utf-8"?>
<!-- Generator: Adobe Illustrator 24.1.0, SVG Export Plug-In . SVG Version: 6.00 Build 0)  -->
<svg version="1.1" id="Layer_1" xmlns="http://www.w3.org/2000/svg" xmlns:xlink="http://www.w3.org/1999/xlink" x="0px" y="0px"
	 viewBox="0 0 16.9 14.8" style="enable-background:new 0 0 16.9 14.8;" xml:space="preserve">
<g>
	<path d="M0,1.5L0,1.5C0,0.7,0.6,0,1.2,0h14.5c0.6,0,1.2,0.7,1.2,1.5l0,0c0,0.8-0.6,1.5-1.2,1.5H1.2C0.6,3,0,2.3,0,1.5z"/>
	<path d="M0.1,7.3L0.1,7.3c0-0.8,0.6-1.5,1.2-1.5h14.5c0.6,0,1.2,0.7,1.2,1.5l0,0c0,0.8-0.6,1.5-1.2,1.5H1.3
		C0.6,8.8,0.1,8.1,0.1,7.3z"/>
	<path d="M0.1,13.3L0.1,13.3c0-0.8,0.6-1.5,1.2-1.5h14.5c0.6,0,1.2,0.7,1.2,1.5l0,0c0,0.8-0.6,1.5-1.2,1.5H1.3
		C0.6,14.8,0.1,14.1,0.1,13.3z"/>
</g>
</svg>
