<?xml version="1.0" encoding="utf-8"?>
<!-- Generator: Adobe Illustrator 24.1.0, SVG Export Plug-In . SVG Version: 6.00 Build 0)  -->
<svg version="1.1" id="Layer_1" xmlns="http://www.w3.org/2000/svg" xmlns:xlink="http://www.w3.org/1999/xlink" x="0px" y="0px"
	 viewBox="0 0 1000 1000" style="enable-background:new 0 0 1000 1000;" xml:space="preserve">
<style type="text/css">
	.st0{fill:#00A3FF;}
	.st1{fill:#FFFFFF;}
	.st2{font-family:'ArialRoundedMTBold';}
	.st3{font-size:76.1334px;}
	.st4{font-size:76px;}
</style>
<path class="st0" d="M619.61,244.1c2.36,0,4.72,0.03,7.07,0.08c-45.81-85.37-135.31-143.34-238.21-143.34
	c-149.54,0-270.77,122.43-270.77,273.45c0,147.26,115.27,267.31,259.65,273.2c-25.39-40-40-86.81-40-136.84
	C337.35,363.44,463.72,244.1,619.61,244.1z"/>
<path d="M208.82,554.19l0.63,0.48c0.79,0.6,1.69,1.03,2.65,1.25l0.94,0.22c1.89,0.45,3.89,0.1,5.52-0.97l0.8-0.53
	c0.49-0.32,0.93-0.7,1.33-1.13l2.34-2.55c0.92-1,1.53-2.24,1.76-3.57l10.73-61.53c0.26-1.49,0.04-3.03-0.64-4.38l-0.32-0.64
	c-1.2-2.4-3.65-3.91-6.33-3.91l0,0c-1.47,0-2.91,0.46-4.11,1.32l-0.57,0.41c-0.76,0.54-1.41,1.24-1.9,2.03l-1.91,3.09
	c-0.44,0.7-0.74,1.48-0.91,2.29l-12.63,61.05C205.63,549.79,206.65,552.54,208.82,554.19z"/>
<path d="M224.73,474.67l6.84-28.63c0.02-0.08,14.99-48.79,20.17-61.53l11.49-26.3c0.02-0.05,7.64-16.55,7.66-16.6l16-29.36
	c0.03-0.05,10.64-18.06,17.27-29.3c3.63-6.16,7.63-12.1,11.97-17.79c6-7.86,13.18-17.12,13.18-17.12
	c1.99-2.89,10.47-13.26,10.47-13.26c2.98-3.48,8.56-9.86,11.85-13.05L369.45,204c2.52-2.42,4.95-4.92,7.47-7.34
	c4.33-4.16,13.29-12.17,15.05-13.75c7.75-6.96,24.71-19.12,24.71-19.12l20.85-13.98c4.17-2.87,10.58-6.13,10.58-6.13
	c0.73-0.4,1.64-0.46,2.34-0.02c1.21,0.76,1.37,2.38,0.44,3.37l-3.2,2.72c-0.13,0.14-11.16,7.61-11.33,7.71l-17.91,12.58
	c-0.07,0.04-9.21,6.4-12.19,9.06c-1.79,1.6-5.87,5.04-5.87,5.04c-3.7,3.19-5.19,4.13-5.87,4.66c-4.85,3.79-9.19,8.48-9.26,8.55
	l-29.11,30.77l-10.71,12.35c-0.09,0.1-7.41,9.11-7.48,9.22l-20.52,29.09c-0.55,0.84-1.09,1.67-1.64,2.51l-17.93,29.77
	c-0.34,0.52-3.26,6.1-4.15,8.07c-3.36,7.44-30.97,68.43-30.97,68.43c-0.04,0.08-0.07,0.17-0.1,0.25l-20.64,66.51l-6.89,23.1
	c-0.29,0.96-2.5,6.02-2.81,4.44c-0.16-0.83-1.47,0.19-2.3-0.01l-1.69-0.04c-0.76-0.04-1.52-0.08-2.28-0.12
	c-0.66-0.04-1.56-0.03-1.86,0.08C221.83,482.68,224.42,475.78,224.73,474.67z"/>
<path d="M261.06,391.09l0.32,0.06c1.66,0.14,3.12,0.87,4.94,1.29c0.37,0.09,0.69,0.17,0.96,0.24c0.84,0.23,1.7,0.41,2.56,0.56
	c0.82,0.14,1.68,0.42,1.68,0.88l-0.15,63.41c0,0.11,0.01,0.22,0.04,0.32l0.46,1.61c0.37,1.31,0.84,4.78,1.91,3.77
	c0.51,3.14-1.28,19.93,2.62-7.52c0.78-5.52,0.07-12.78,0.07-12.87l0.06-28.34l-0.38-19.28l0.49-0.34l0.64-2.94
	c0.12-0.54-0.17-1.06-0.66-1.32c-0.54-0.28-0.69-1-0.29-1.48l5.25-5.95c1.35-1.71,3.56-4.5,4.92-6.21l4.9-6.91
	c0.05-0.07,4.74-7.33,4.77-7.41l5.02-10.66c0.03-0.07,3.55-9.31,3.57-9.38l1.91-7.8c0.01-0.02,0.01-0.05,0.02-0.07l4.06-18.55
	c0.07-0.31,0.24-0.58,0.5-0.77l2.98-2.54c3.18-2.7,8.02-7.49,10.76-10.64c3.22-3.71,2.41-2.73,2.45-2.78c0,0,4.09-4.96,4.44-5.4
	c0.02-0.02,0.03-0.04,0.05-0.06l6.71-9.32c2.4-3.33,4.5-6.87,6.29-10.57l6-15.5c0.04-0.08,2.36-6.96,2.36-6.96
	c0.06-0.24,1.99-3.48,2.17-3.64l13.98-13.96l11.49-10.94c0.08-0.08,6.56-6.62,6.64-6.7l7.96-9.28c0.4-0.47,4.04-5.35,4.37-5.88
	c0,0,6.34-11.09,6.44-11.17l7.23-6.85l15.74-11.89l13.72-11.17l8.04-6.7l4.09-3.51c0.3-0.27,0.64-0.81,0.57-1.21
	c0,0-0.76-2.53-1.15-2.68l-1.39-1.12c-0.37-0.14-2.36-1.4-2.75-1.33c-0.66,0.11,0.49,1.97,0.63,2.63l0.24,1.13
	c0.09,0.41-0.05,0.84-0.36,1.12l-4.75,4.29c-0.02,0.02-0.04,0.03-0.05,0.05l-39.44,31.55c-0.33,0.26-0.77,0.33-1.17,0.18l-4.28-1.69
	c-0.15-0.06-0.31-0.09-0.47-0.08l-3.08,0.11c-0.78,0.03-1.5,0.41-1.95,1.04l0,0c-0.48,0.67-0.14,1.61,0.65,1.82l0.63,0.17
	c0.1,0.03,0.2,0.07,0.3,0.1l3.03,1.25c0.58,0.24,2.53,1.13,2.32,1.72l-2.75,5.59c-0.03,0.09-1.02,2.17-3.66,6.15l-4.51,5.4
	c-0.02,0.02-7.26,7.76-7.28,7.79l-6.77,6.77c-0.05,0.06-7.91,8.04-7.91,8.04c-0.05,0.04-2.68,3.14-6.72,6.81
	c-0.77,0.7-7.52,7.99-8.33,7.99c-0.68,0-6.79-3.49-9.01-4.48c-0.55-0.24-1.02,0.9-1.4,1.36l-2.23,1.98
	c-0.47,0.58-1.29,1.52-0.62,1.86l7.79,3.25c0.51,0.26,0.76,0.85,0.59,1.4l-1.17,5.07c-0.44,1.89-1.08,3.73-1.91,5.49
	c-1.09,2.29-2.5,5.24-2.51,5.27l-4.09,9.06c-0.02,0.04-1.26,2.77-1.28,2.81c-1.81,3.46-6.18,9.59-8.68,12.51l-9.32,11.17
	c-0.02,0.02-4.32,4.32-4.34,4.34c0,0-6.1,6.79-6.37,6.78l-12.97-0.05c-0.37-0.01-0.19,0.37-0.37,0.7l-1.91,3.71
	c-0.3,0.59-1.47,1.5-0.8,1.58l9.17,0.8c0.49,0.06,2.12-0.3,2.1,0.2l-2.61,14.98c-0.83,4.43-1.68,6.91-1.7,6.98l-1.7,5.19
	c-0.02,0.07-3.54,8.44-3.57,8.51l-3.91,7.66c-0.04,0.09-3.26,5.11-3.32,5.19l-6.16,8.85l-9.27,12.02c-0.29,0.4-0.78,0.61-1.27,0.53
	l-10.26-1.58"/>
<path d="M274.43,459.42c-2.81-5.4-10.88-8.27-18.17-8.27c-5.17,0-11.87,1.41-15.15,4.43c-3.01,2.77-2.45,2.28-3.53,6.24
	c-0.68,2.5-0.78,0.7-0.91,10.53c-0.05,3.57,4.44,7.21,9.82,8.93c3.46,1.11,7.5,1.67,9.41,1.53c2.7-0.2,4.58-0.25,6.76-0.63
	c5.91-1.01,10.74-4.05,12.08-10.78C275.17,469.18,275.44,461.36,274.43,459.42z M246.49,477.64c-2.41,0-4.36-1.95-4.36-4.36
	c0-2.41,1.95-4.36,4.36-4.36c2.41,0,4.36,1.95,4.36,4.36C250.85,475.68,248.89,477.64,246.49,477.64z M246.49,466.68
	c-2.41,0-4.36-1.95-4.36-4.36c0-2.41,1.95-4.36,4.36-4.36c2.41,0,4.36,1.95,4.36,4.36C250.85,464.72,248.89,466.68,246.49,466.68z
	 M252.35,457.96c0-2.41,1.95-4.36,4.36-4.36c2.41,0,4.36,1.95,4.36,4.36c0,2.41-1.95,4.36-4.36,4.36
	C254.3,462.32,252.35,460.36,252.35,457.96z M258.3,479.25c-2.41,0-4.36-1.95-4.36-4.36c0-2.41,1.95-4.36,4.36-4.36
	c2.41,0,4.36,1.95,4.36,4.36C262.66,477.3,260.71,479.25,258.3,479.25z M265.42,470.53c-2.41,0-4.36-1.95-4.36-4.36
	c0-2.41,1.95-4.36,4.36-4.36c2.41,0,4.36,1.95,4.36,4.36C269.78,468.58,267.83,470.53,265.42,470.53z"/>
<polyline class="st1" points="454.6,146.11 457.79,148.85 463.06,166.55 471.91,196.68 482.3,227.32 490.47,251.66 495.61,268.89 
	493.02,269.87 478.21,224.43 468.68,193.79 455.75,151.23 455.17,150 "/>
<path d="M494.29,269.39c0.73-0.28,1.54,0.1,1.8,0.83L506.81,300l12.43,38.13l4.6,13.11l5.96,18.04l4.06,13.53
	c0.01,0.06,0.91,3.99,0.93,4.05l0.3,3.59c0.06,0.39,0.1,1.03,0.05,1.42c-0.36,2.69-1.96,5.46-4.4,6.71
	c-0.29,0.15-1.95,0.61-3.5,0.49c-0.18-0.01-0.36-0.03-0.54-0.06c-2.38-0.35-4.45-1.83-5.71-3.89l-2.58-4.22
	c-0.11-0.23-0.16-0.49-0.13-0.75c0,0,0-0.01,0.01-0.03c0.4-0.94,1.91-1.72,2.43-0.84c1.09,1.84,1.09,1.84,1.21,2.06l0.99,1.16
	c0.07,0.1,2.94,2.23,2.94,2.23c0.09,0.09,1.2,0.67,1.57,0.67c1.9-0.01,2.53,0.16,3.66-1.36c0.2-0.27,0.62-2.43,0.6-2.55
	c0,0-0.65-5.96-1.54-8.68l-12.07-39.58l-23.32-68.6l-1.25-3.49C493.22,270.44,493.59,269.66,494.29,269.39z"/>
<text transform="matrix(0.8986 0 0 1 384.255 495.8562)" class="st2 st3">FISHING</text>
<text transform="matrix(0.8986 0 0 1 377.193 495.8564)" class="st0 st2 st3">FISHING</text>
<text transform="matrix(1 0 0 1 416.7705 571.149)" class="st2 st4">MASTER</text>
</svg>
