<?xml version="1.0" encoding="utf-8"?>
<!-- Generator: Adobe Illustrator 24.1.0, SVG Export Plug-In . SVG Version: 6.00 Build 0)  -->
<svg version="1.1" id="Layer_1" xmlns="http://www.w3.org/2000/svg" xmlns:xlink="http://www.w3.org/1999/xlink" x="0px" y="0px"
	 viewBox="0 0 50 50" style="enable-background:new 0 0 50 50;" xml:space="preserve">
<style type="text/css">
	.st0{fill:none;stroke:#000000;stroke-width:2;stroke-miterlimit:10;}
	.st1{fill:none;stroke:#000000;stroke-miterlimit:10;}
	.st2{stroke:#000000;stroke-width:0.5;stroke-miterlimit:10;}
</style>
<path class="st0" d="M17.1,19.7h18.8c1,0,1.8,0.8,1.8,1.8V33c0,0.9-0.8,1.7-1.7,1.7H17.5c-1,0-1.8-0.8-1.8-1.8V21.1
	C15.7,20.3,16.3,19.7,17.1,19.7z"/>
<ellipse class="st0" cx="27.2" cy="25.7" rx="3.5" ry="3"/>
<path class="st1" d="M27.2,32.2"/>
<path class="st0" d="M22.7,18.7v-3.2c0-1.1,0.6-2.2,1.6-2.8l0,0c1.4-0.8,3-1,4.5-0.3c0.1,0.1,0.2,0.1,0.3,0.2l0,0
	c1.1,0.7,1.7,1.9,1.7,3.1v3v1h-8v-1"/>
<polyline class="st2" points="27.7,28.7 26.7,28.7 26.7,31.7 27.7,31.7 27.7,28.7 "/>
</svg>
