<?xml version="1.0" encoding="utf-8"?>
<!-- Generator: Adobe Illustrator 24.1.0, SVG Export Plug-In . SVG Version: 6.00 Build 0)  -->
<svg version="1.1" id="Layer_1" xmlns="http://www.w3.org/2000/svg" xmlns:xlink="http://www.w3.org/1999/xlink" x="0px" y="0px"
	 viewBox="0 0 1000 1260" style="enable-background:new 0 0 1000 1260;" xml:space="preserve">
<style type="text/css">
	.st0{fill:#FFFFFF;}
</style>
<g id="Layer_1_1_">
	
		<image style="overflow:visible;opacity:0.25;enable-background:new    ;" width="719" height="996" xlink:href="BC51AF2.png"  transform="matrix(1.1529 1.673954e-02 -1.697454e-02 1.1691 113.3911 41.7935)">
	</image>
	<g>
		<g>
			<path class="st0" d="M114.3,1179.3l1.4,1.5c1.7,1.9,3.6,3.3,5.7,4.2l2.1,0.8c4.2,1.7,9,1.2,13.1-1.4l2-1.4
				c1.3-0.8,2.3-1.8,3.4-2.9l6.1-6.7c2.5-2.7,4.2-6,5.1-9.7l42.8-173.5c1-4.2,0.9-8.6-0.2-12.6l-0.5-1.9c-2.1-7.2-7.3-12-13.4-12.7
				l0,0c-3.3-0.4-6.8,0.6-9.8,2.8l-1.4,1c-1.9,1.4-3.6,3.2-4.9,5.3l-5.3,8.3c-1.2,1.9-2.1,4.1-2.7,6.4l-47.1,171.6
				C108.3,1166,109.7,1174.1,114.3,1179.3z"/>
			<path class="st0" d="M174.3,955.7l24.1-80.3c0.1-0.2,48.8-136,64.5-171.2l34.1-72.5c0.1-0.1,22.5-45.5,22.6-45.6l45.6-80.1
				c0.1-0.1,29.9-49.1,48.4-79.6c10.2-16.8,21.1-32.8,32.9-48c16.1-21,35.4-45.8,35.4-45.8c5.4-7.8,28.1-35.4,28.1-35.4
				c7.9-9.2,22.6-26.1,31.2-34.5l46.3-46.4c6.5-6.3,12.9-12.9,19.4-19.2c11.2-10.8,34.2-31.7,38.8-35.7
				c19.9-18.1,62.6-48.8,62.6-48.8l52.2-35c10.5-7.2,26.2-14.9,26.2-14.9c1.9-1,3.9-0.9,5.4,0.5c2.6,2.5,2.4,7.2,0.1,9.7l-8.2,7
				c-0.4,0.3-28,19.1-28.4,19.3l-45,31.7c-0.1,0.1-23.2,16.2-30.8,22.9c-4.6,4.1-15.1,13-15.1,13c-9.5,8.3-13.2,10.6-14.9,11.9
				c-12.2,9.6-23.7,22.1-23.8,22.2l-76.1,81l-28.4,32.8c-0.2,0.2-19.7,24.3-20,24.6l-55.9,78.3c-1.5,2.3-2.9,4.5-4.5,6.8L391,505.4
				c-0.9,1.4-9.4,16.7-12,22c-10.1,20.2-91.6,188.1-91.6,188.1c-0.1,0.2-0.2,0.5-0.4,0.7l-66.9,185.4l-22.6,64.5
				c-1,2.7-7.5,16.6-7.8,12c-0.1-2.5-3.5,0.2-5.3-0.5l-3.9-0.5c-1.7-0.3-3.5-0.6-5.2-0.9c-1.5-0.3-3.6-0.5-4.3-0.2
				C165.2,977.9,173.2,958.7,174.3,955.7z"/>
			<path class="st0" d="M282.5,725.2l0.7,0.2c3.8,0.8,7,3.3,11,4.8c0.8,0.4,1.5,0.6,2.2,1c1.8,0.8,3.8,1.6,5.7,2.2
				c1.8,0.6,3.8,1.6,3.6,3l-18.9,181.3c0,0.4,0,0.6,0,0.9l0.6,4.7c0.5,3.9,0.5,13.9,3.3,11.3c0.2,9.1-8.8,56.7,8.3-20.9
				c3.5-15.6,3.9-36.5,3.9-36.8l8.4-81l4.7-55.2l1.3-0.8l2.3-8.3c0.5-1.5-0.1-3-1.1-4c-1.1-1-1.3-3.1-0.3-4.3l13.8-15.8
				c3.6-4.6,9.5-12,13.2-16.5l13.3-18.6c0.1-0.2,13.1-19.8,13.2-20l14.7-29.3c0.1-0.2,10.9-25.8,11-26l6.7-21.9c0,0,0-0.1,0.1-0.2
				l14.8-52.1c0.2-0.8,0.7-1.6,1.4-2.1l7.6-6.6c8.2-7,20.7-19.5,28-27.9c8.6-9.8,6.3-7.3,6.4-7.4c0,0,10.9-13.2,11.9-14.3l0.1-0.1
				l18.2-25.1c6.5-8.9,12.4-18.5,17.6-28.7l18.4-42.9c0.1-0.2,7.4-19.3,7.4-19.3c0.2-0.7,5.6-9.5,6-9.9l36.4-36.5l29.7-28.6
				c0.2-0.2,17.1-17.4,17.3-17.5l21.1-24.6c1.1-1.3,10.9-14.3,11.8-15.7c0,0,17.9-30.3,18.1-30.4l18.7-17.9l39.8-30.2l34.9-28.6
				l20.5-17.2l10.5-9.1c0.8-0.7,1.8-2.2,1.7-3.4c0,0-1-7.4-1.8-8l-2.8-3.5c-0.8-0.5-5-4.6-5.9-4.4c-1.5,0.2,0.6,5.7,0.7,7.7l0.2,3.3
				c0.1,1.2-0.4,2.3-1.2,3.1l-12.3,11.2l-0.1,0.1l-100.2,80.7c-0.8,0.7-1.9,0.8-2.8,0.2l-9.4-5.9c-0.3-0.2-0.7-0.4-1-0.4l-7.1-0.5
				c-1.8-0.1-3.6,0.8-4.8,2.5l0,0c-1.3,1.9-0.8,4.5,1,5.4l1.4,0.6c0.2,0.1,0.5,0.2,0.7,0.4l6.6,4.3c1.3,0.8,5.5,3.8,4.9,5.4
				l-7.9,15.3c-0.1,0.2-3,5.9-10.3,16.7l-12,14.3c0,0-19,20.4-19.1,20.5l-17.6,17.8c-0.1,0.1-20.6,21.1-20.6,21.1
				c-0.1,0.1-7.2,8.3-17.6,17.9c-2,1.8-19.7,21-21.5,20.9c-1.6-0.1-14.7-11.7-19.5-15c-1.3-0.8-2.6,2.3-3.6,3.6l-5.7,5.2
				c-1.3,1.5-3.4,4-1.9,5.1l17,11.1c1.1,0.8,1.5,2.6,1,4.1l-4.1,14.2c-1.6,5.4-3.6,10.4-6,15.2c-3.2,6.3-7.2,14.4-7.4,14.5l-12.4,25
				c0,0.1-3.7,7.7-3.8,7.8c-5.2,9.5-17.1,25.9-23.7,33.7l-24.8,29.7c0,0-11.2,11.3-11.2,11.4c0,0-16.1,18-16.6,17.9l-29.9-3.2
				c-0.8-0.1-0.6,1-1.1,1.9l-5.5,10.2c-0.8,1.6-3.9,3.9-2.3,4.3l20.9,4.5c1.1,0.3,5-0.4,4.8,1.1L396,570.1
				c-3.2,12.5-5.9,19.3-5.9,19.6l-5.4,14.4c-0.1,0.2-10.6,23.3-10.7,23.5l-11.3,21c-0.1,0.2-9,13.8-9.2,14l-16.8,23.8l-24.9,32.1
				c-0.8,1-2,1.6-3.1,1.2l-23.2-7"/>
			<path class="st0" d="M293.4,924c-5-16.1-22.7-26.3-39.5-28.1c-12-1.2-27.8,1.1-36.2,9.1c-7.7,7.3-6.3,6-9.9,17
				c-2.3,7-2,1.8-5.2,29.9c-1.2,10.2,8.1,21.7,20.1,27.9c7.7,4,16.9,6.6,21.2,6.6c6.3,0.1,10.6,0.4,15.8-0.1c14-1.4,26-9,31.1-28
				C292.3,952.1,295.3,929.7,293.4,924z M223.7,969.4c-5.5-0.5-9.5-6.7-8.8-13.6c0.7-6.9,5.8-12,11.4-11.4c5.5,0.5,9.5,6.7,8.8,13.6
				C234.2,964.8,229.2,969.9,223.7,969.4z M226.9,938c-5.5-0.5-9.5-6.7-8.8-13.6c0.7-6.9,5.8-12,11.4-11.4c5.5,0.5,9.5,6.7,8.8,13.6
				C237.4,933.4,232.4,938.6,226.9,938z M242.9,914.5c0.7-6.9,5.8-12,11.4-11.4c5.5,0.5,9.5,6.7,8.8,13.6c-0.7,6.9-5.8,12-11.4,11.4
				C246.2,927.4,242.2,921.3,242.9,914.5z M250.4,976.8c-5.5-0.5-9.5-6.7-8.8-13.6c0.7-6.9,5.8-12,11.4-11.4
				c5.5,0.5,9.5,6.7,8.8,13.6C261.1,972.2,255.9,977.4,250.4,976.8z M269.4,953.5c-5.5-0.5-9.5-6.7-8.8-13.6
				c0.7-6.9,5.8-12,11.4-11.4c5.5,0.5,9.5,6.7,8.8,13.6C280,949,275,954.2,269.4,953.5z"/>
			<polyline class="st0" points="800.8,70.8 807.4,79.5 814.3,131.4 826,219.7 841,310 852.8,381.6 859.7,432.1 853.4,434.3 
				832.4,300.7 819.4,210.7 802,85.8 801,82.2 			"/>
			<path d="M856.4,433.2c1.7-0.7,3.6,0.6,3.9,2.9l16,87.8L893.8,636l6.8,38.6l8.5,53.1l5.4,39.7c0,0.1,1,11.6,1,11.8l-0.4,10.4
				c0,1.2,0,2.9-0.3,4.1c-1.6,7.6-6.1,15.1-12.1,18.2c-0.7,0.3-4.6,1.2-8.2,0.6c-0.5-0.1-0.8-0.1-1.3-0.3c-5.4-1.6-9.7-6.3-12-12.5
				l-4.8-12.7c-0.2-0.7-0.2-1.4-0.1-2.2c0,0,0,0,0-0.1c1.2-2.6,4.9-4.5,5.9-1.8c2,5.5,2,5.5,2.2,6.2l1.9,3.5
				c0.1,0.4,6.1,7.1,6.1,7.1c0.2,0.2,2.6,2.3,3.4,2.3c4.4,0.4,5.8,1,8.8-3c0.6-0.7,2.2-6.8,2.2-7.1c0,0,0.2-17.2-1-25.2l-16.1-116.6
				l-33.9-202l-1.8-10.3C853.6,436,854.7,433.7,856.4,433.2z"/>
		</g>
	</g>
</g>
</svg>
